# xmcd CD database file
# Copyright (C) 1993-1998 Ti Kan
#
# Track frame offsets:
#	150
#	11640
#	31057
#	43337
#	57922
#	71287
#	83672
#	95715
#	107050
#	119192
#	131767
#	142952
#	155490
#	167355
#	178585
#	192050
#	206282
#	219887
#	231950
#	246257
#
# Disc length: 3428 seconds
#
# Revision: 3
# Processed by: cddbd v1.4b41PL1 Copyright (c) Steve Scherf et al.
# Submitted via: CDmax 1.4
#
DISCID=120d6214
DTITLE=Hitparade zum Biergarten [CD#2 - 2] - Auf zum Biergarten
DYEAR=1900
DGENRE=
TTITLE0=Musikantengrüße (Polka)
TTITLE1=Ambosspolka
TTITLE2=Kufsteinerlied (Walzer)
TTITLE3=Einzug der Musikanten (Marsch)
TTITLE4=Bergveilchen (Walzer)
TTITLE5=Schwarze Augen (Polka)
TTITLE6=In München steht ein Hofbräuhaus (Walzer)
TTITLE7=Kitzbühler Standschützenmarsch
TTITLE8=Der Wenzl kommt (Bayr. Polka)
TTITLE9=Schneewalzer
TTITLE10=Bis bald auf Wiederseh'n (Polka)
TTITLE11=Oberbayrischer Ländler
TTITLE12=Die fidelen 60er (Polka)
TTITLE13=In die weite Welt (Marsch)
TTITLE14=Im Bömerwald (Walzer)
TTITLE15=Im schönen Gamsgebirg' (Polka)
TTITLE16=Berglandwalzer
TTITLE17=Wenn ich auf hohen Bergen steh' (Marsch)
TTITLE18=Alpenliedermarsch
TTITLE19=Über zwei Dörfer (Polka)
EXTD=
EXTT0=
EXTT1=
EXTT2=
EXTT3=
EXTT4=
EXTT5=
EXTT6=
EXTT7=
EXTT8=
EXTT9=
EXTT10=
EXTT11=
EXTT12=
EXTT13=
EXTT14=
EXTT15=
EXTT16=
EXTT17=
EXTT18=
EXTT19=
PLAYORDER=
